<svg width="16" height="73" viewBox="0 0 16 73" fill="none" xmlns="http://www.w3.org/2000/svg">
<path opacity="0.4" d="M0.390625 66.0781C0.390625 64.0156 1.21875 62.1719 2.875 60.5469C4.5625 58.9219 6.42188 58.1094 8.45312 58.1094C10.4844 58.1094 12.1406 58.7188 13.4219 59.9375C14.7344 61.1562 15.3906 62.8438 15.3906 65C15.3906 67.1562 14.4375 69.1562 12.5312 71C11.0938 72.25 9.39062 72.875 7.42188 72.875C5.45312 72.875 3.78125 72.25 2.40625 71C1.0625 69.7812 0.390625 68.1406 0.390625 66.0781ZM13.0469 51.2188C11.2656 52 9.51562 52.3906 7.79688 52.3906C6.10938 52.3906 4.45312 52.1875 2.82812 51.7812C2.82812 51.6875 2.75 51.0938 2.59375 50C2.4375 48.875 2.29688 47.7656 2.17188 46.6719C2.04688 45.5781 1.89062 44.0469 1.70312 42.0781C1.51562 40.1094 1.34375 37.8594 1.1875 35.3281C1.03125 32.7969 0.875 29.9062 0.71875 26.6562C0.40625 20.3125 0.1875 11.7656 0.0625 1.01562C3.5625 0.421875 6.57812 0.125 9.10938 0.125C11.6719 0.125 13.75 0.421875 15.3438 1.01562C13.9688 18.7969 13.2031 35.5312 13.0469 51.2188Z" fill="#FFC700"/>
</svg>
