<svg width="157" height="34" viewBox="0 0 157 34" fill="none" xmlns="http://www.w3.org/2000/svg">
<path d="M11.168 14.312L11.488 13.032C11.5733 12.7333 11.6373 12.328 11.68 11.816C11.808 11.3893 11.9147 10.92 12 10.408C12.1707 8.872 12.1707 7.61333 12 6.632C11.872 5.69333 11.7013 4.94667 11.488 4.392C11.1893 3.70933 10.8693 3.24 10.528 2.984C9.888 2.64267 9.35467 3.048 8.928 4.2C8.50133 5.30933 8.13867 6.78133 7.84 8.616C7.62667 10.6213 7.456 12.776 7.328 15.08C7.2 17.512 7.15733 19.816 7.2 21.992C7.456 21.7787 7.73333 21.4587 8.032 21.032C8.37333 20.6907 8.69333 20.264 8.992 19.752C9.93067 18.088 10.656 16.2747 11.168 14.312ZM12.064 30.056C12.2347 30.2267 12.4907 30.2693 12.832 30.184C13.0453 30.0987 13.2373 29.9067 13.408 29.608C13.5787 29.3093 13.7707 28.9467 13.984 28.52C13.5573 28.2213 13.1307 27.9867 12.704 27.816C12.2773 27.6453 11.9787 27.6667 11.808 27.88C11.68 28.0507 11.616 28.2853 11.616 28.584C11.5733 28.8827 11.5947 29.16 11.68 29.416C11.7653 29.7147 11.8933 29.928 12.064 30.056ZM19.68 22.632C19.7653 24.168 19.5733 25.768 19.104 27.432C18.8907 28.2853 18.6773 28.968 18.464 29.48C18.7627 29.48 19.04 29.3093 19.296 28.968C19.7227 28.456 20.1493 27.88 20.576 27.24C20.96 26.6427 21.3227 26.0453 21.664 25.448C21.9627 24.8933 22.24 24.36 22.496 23.848C22.7093 23.3787 22.88 23.016 23.008 22.76C23.0933 22.5467 23.2213 22.4827 23.392 22.568H23.52C23.7333 22.6533 23.8827 22.7813 23.968 22.952C24.0107 23.1227 23.9893 23.3147 23.904 23.528C22.752 26.1307 21.6427 28.1787 20.576 29.672C20.2347 30.2267 19.872 30.5893 19.488 30.76C19.104 30.9733 18.72 31.1013 18.336 31.144C17.952 31.144 17.6533 31.1013 17.44 31.016L17.056 31.464L16.608 31.912C16.1387 32.296 15.648 32.5947 15.136 32.808C14.6667 33.0213 14.1547 33.1493 13.6 33.192C13.0027 33.2347 12.384 33.0853 11.744 32.744C11.4027 32.5733 11.1253 32.36 10.912 32.104C10.6987 31.8907 10.5067 31.592 10.336 31.208C10.1653 30.8667 10.0587 30.4613 10.016 29.992C9.97333 29.5653 9.99467 29.096 10.08 28.584C10.1227 28.072 10.336 27.5387 10.72 26.984C11.1893 26.2587 11.744 25.9813 12.384 26.152C13.024 26.3227 13.7067 26.664 14.432 27.176L14.688 26.088C14.7307 25.7467 14.7947 25.448 14.88 25.192C15.0933 24.0827 15.2 23.1867 15.2 22.504C15.2 22.248 15.1787 21.992 15.136 21.736C15.0507 20.7547 14.9013 20.008 14.688 19.496C14.3893 18.856 14.0267 18.472 13.6 18.344C12.9173 18.3867 12.32 18.7067 11.808 19.304C11.296 19.8587 10.8693 20.4773 10.528 21.16C10.2293 21.8427 9.99467 22.5253 9.824 23.208C9.65333 23.848 9.54667 24.2747 9.504 24.488C8.90667 26.408 8.71467 29.032 8.928 32.36C8.928 32.5307 8.84267 32.7013 8.672 32.872C8.50133 33 8.288 33.064 8.032 33.064C7.17867 33.0213 6.51733 32.8293 6.048 32.488C5.57867 32.104 5.23733 31.7413 5.024 31.4C4.72533 30.9307 4.53333 30.4187 4.448 29.864C4.192 28.2427 4 27.496 3.872 27.624C3.744 27.752 3.70133 27.0053 3.744 25.384C2.76267 25.5547 1.84533 25.5547 0.992 25.384C0.736 25.3413 0.608 25.0853 0.608 24.616C0.693333 24.0187 0.864 23.7627 1.12 23.848C1.46133 23.8907 1.80267 23.9333 2.144 23.976C2.48533 23.9333 2.80533 23.8907 3.104 23.848C3.36 23.8053 3.59467 23.784 3.808 23.784C3.808 22.888 3.82933 22.1413 3.872 21.544V18.344C3.91467 16.424 4.02133 14.5893 4.192 12.84C4.36267 10.9627 4.66133 9.17067 5.088 7.464C5.472 5.84267 6.00533 4.392 6.688 3.112C7.072 2.25867 7.49867 1.61867 7.968 1.192C8.39467 0.850667 8.8 0.594667 9.184 0.424C9.568 0.338665 9.90933 0.317331 10.208 0.359997C10.5067 0.402665 10.72 0.487999 10.848 0.615997C11.7867 0.957331 12.5333 1.832 13.088 3.24C13.5573 4.60533 13.792 6.03466 13.792 7.528C13.7493 9.064 13.5787 10.6213 13.28 12.2C13.024 13.6933 12.6187 15.1013 12.064 16.424C11.8507 16.936 11.6373 17.448 11.424 17.96C11.68 17.6613 11.936 17.4267 12.192 17.256C13.0027 16.6587 14.0267 16.424 15.264 16.552C16.4587 16.68 17.4187 17.2347 18.144 18.216C18.8693 19.1973 19.36 20.3707 19.616 21.736C19.6587 22.0347 19.68 22.3333 19.68 22.632ZM24.298 28.84C24.3833 28.072 24.3407 27.5173 24.17 27.176C24.042 26.8773 23.8713 26.6853 23.658 26.6C23.5727 27.4533 23.53 28.136 23.53 28.648C23.5727 29.2027 23.6793 29.5013 23.85 29.544C24.0207 29.544 24.1487 29.4373 24.234 29.224L24.298 28.84ZM30.442 12.84C31.8927 12.84 32.8953 13.2667 33.45 14.12C34.0473 14.9307 34.4313 15.784 34.602 16.68C35.114 15.656 35.754 14.76 36.522 13.992C37.3327 13.224 38.3353 12.84 39.53 12.84C40.81 12.84 41.7487 13.1813 42.346 13.864C42.9433 14.5467 43.3487 15.2933 43.562 16.104C43.7753 17.0853 43.8393 18.1733 43.754 19.368C43.6687 20.5627 43.5833 21.7573 43.498 22.952C43.4127 24.1467 43.3487 25.256 43.306 26.28C43.306 27.2613 43.3273 28.072 43.37 28.712C43.4127 29.3093 43.498 29.6293 43.626 29.672C44.0953 29.2027 44.5433 28.6267 44.97 27.944C45.4393 27.2613 45.866 26.6 46.25 25.96C46.634 25.2773 46.954 24.6587 47.21 24.104C47.466 23.5493 47.658 23.144 47.786 22.888C47.8713 22.6747 48.0207 22.6107 48.234 22.696H48.362C48.5753 22.7813 48.7033 22.9093 48.746 23.08C48.8313 23.2507 48.8313 23.4427 48.746 23.656C47.722 25.9173 46.762 27.7307 45.866 29.096C45.0127 30.4187 44.202 31.4 43.434 32.04C42.7087 32.68 42.0047 33.0213 41.322 33.064C40.6393 33.1067 39.978 32.936 39.338 32.552C38.6127 32.1253 38.1007 31.3573 37.802 30.248C37.5033 29.096 37.3113 27.8587 37.226 26.536C37.1407 25.1707 37.1193 23.8267 37.162 22.504C37.2473 21.1387 37.3327 20.0293 37.418 19.176C37.546 18.2373 37.5673 17.5973 37.482 17.256C37.3967 16.872 37.2473 16.6587 37.034 16.616C36.7353 16.5733 36.4153 16.9147 36.074 17.64C35.7753 18.3653 35.4767 19.24 35.178 20.264C34.922 21.2453 34.6873 22.2907 34.474 23.4C34.3033 24.4667 34.1967 25.3627 34.154 26.088V26.408C34.154 26.4933 34.154 26.6213 34.154 26.792C34.154 26.9627 34.1327 27.1547 34.09 27.368C34.09 27.6667 34.0473 28.0293 33.962 28.456C33.8767 28.84 33.7487 29.224 33.578 29.608C33.45 29.9493 33.258 30.248 33.002 30.504C32.746 30.76 32.426 30.9093 32.042 30.952C31.146 31.0373 30.442 30.8667 29.93 30.44C29.4607 29.9707 29.098 29.4587 28.842 28.904C28.5433 28.264 28.3727 27.5387 28.33 26.728C28.1593 25.2773 28.0953 23.912 28.138 22.632C28.1807 21.3093 28.2233 20.1573 28.266 19.176C28.394 18.2373 28.4153 17.576 28.33 17.192C28.2873 16.936 28.2233 16.7013 28.138 16.488C28.0527 16.232 27.9247 15.976 27.754 15.72C27.5833 15.5493 27.434 15.5067 27.306 15.592C26.9647 15.7627 26.6233 16.168 26.282 16.808C25.9833 17.448 25.6847 18.1947 25.386 19.048C25.0873 19.944 24.81 20.8827 24.554 21.864C24.3407 22.888 24.1487 23.8693 23.978 24.808C24.874 25.064 25.4927 25.6187 25.834 26.472C26.218 27.368 26.3673 28.3067 26.282 29.288C26.2393 30.2693 26.0047 31.144 25.578 31.912C25.1513 32.68 24.5753 33.064 23.85 33.064C23.2527 33.064 22.8047 32.808 22.506 32.296C22.25 31.8267 22.0793 31.2507 21.994 30.568C21.9087 29.928 21.866 29.2667 21.866 28.584C21.9087 27.9013 21.9513 27.368 21.994 26.984C21.6527 27.368 21.3967 27.8587 21.226 28.456C21.0553 29.096 20.9273 29.5867 20.842 29.928C20.7567 30.2267 20.6073 30.2693 20.394 30.056L20.33 29.928C19.9033 29.2453 19.7967 28.4773 20.01 27.624C20.1807 27.0693 20.4367 26.5147 20.778 25.96C21.1193 25.4053 21.6313 25.0213 22.314 24.808C22.7833 21.864 23.338 19.5813 23.978 17.96C24.618 16.3813 25.2367 15.2293 25.834 14.504C26.5593 13.608 27.306 13.096 28.074 12.968C28.714 12.84 29.5033 12.7973 30.442 12.84ZM64.2785 22.696C64.4918 22.7813 64.6198 22.9093 64.6625 23.08C64.7478 23.2507 64.7478 23.4427 64.6625 23.656C64.1932 24.68 63.7452 25.6187 63.3185 26.472C62.8918 27.2827 62.4865 28.008 62.1025 28.648C61.3772 29.7573 60.5452 30.696 59.6065 31.464C58.7958 32.104 57.8145 32.616 56.6625 33C55.5105 33.4267 54.1878 33.4053 52.6945 32.936C51.8838 32.68 51.0518 32.168 50.1985 31.4C49.3878 30.632 48.7052 29.672 48.1505 28.52C47.5958 27.368 47.2332 26.0667 47.0625 24.616C46.8918 23.1227 47.0625 21.5227 47.5745 19.816C48.0438 18.152 48.6412 16.872 49.3665 15.976C50.1345 15.0373 50.8812 14.3333 51.6065 13.864C52.4172 13.352 53.2705 13.0533 54.1665 12.968C55.2332 12.8827 56.1292 13.0107 56.8545 13.352C57.5798 13.6507 58.1772 14.0347 58.6465 14.504C59.0305 14.9307 59.3292 15.3787 59.5425 15.848C59.7558 16.2747 59.8625 16.7653 59.8625 17.32C59.9052 17.8747 59.7772 18.5147 59.4785 19.24C59.1372 20.008 58.6465 20.648 58.0065 21.16C57.4518 21.6293 56.7052 22.0133 55.7665 22.312C54.8278 22.568 53.6332 22.5893 52.1825 22.376C52.1825 22.504 52.1612 22.632 52.1185 22.76C52.1185 22.888 52.1185 23.016 52.1185 23.144C52.0332 24.552 52.0758 25.832 52.2465 26.984C52.4172 27.9653 52.7372 28.904 53.2065 29.8C53.6758 30.6533 54.4225 31.1227 55.4465 31.208C56.1718 31.2933 56.8545 31.1653 57.4945 30.824C58.1772 30.4827 58.7745 30.0773 59.2865 29.608C59.8838 29.096 60.4598 28.4987 61.0145 27.816C61.6545 26.8347 62.2092 25.8747 62.6785 24.936C63.1905 23.9547 63.5318 23.272 63.7025 22.888C63.7878 22.6747 63.9372 22.6107 64.1505 22.696H64.2785ZM58.1345 15.592C57.8358 15.2933 57.4305 15.208 56.9185 15.336C56.4065 15.464 55.8732 15.784 55.3185 16.296C54.7638 16.7653 54.2305 17.4053 53.7185 18.216C53.2065 18.984 52.8012 19.88 52.5025 20.904C52.8865 20.9893 53.3132 21.032 53.7825 21.032C54.2518 21.032 54.7212 20.968 55.1905 20.84C55.7025 20.712 56.1718 20.5413 56.5985 20.328C57.0678 20.072 57.4732 19.7093 57.8145 19.24C58.1985 18.6853 58.4332 18.1947 58.5185 17.768C58.6465 17.2987 58.6678 16.8933 58.5825 16.552C58.4972 16.168 58.3478 15.848 58.1345 15.592ZM74.1985 20.136C73.6865 20.136 73.2385 20.008 72.8545 19.752C72.5985 19.5813 72.5558 19.368 72.7265 19.112C73.1105 18.6 73.3452 18.152 73.4305 17.768C73.5585 17.384 73.6225 17.064 73.6225 16.808C73.6225 16.5093 73.5585 16.232 73.4305 15.976C73.0038 15.72 72.5132 15.6987 71.9585 15.912C71.4038 16.0827 70.8492 16.4667 70.2945 17.064C69.7825 17.6613 69.3132 18.472 68.8865 19.496C68.5025 20.52 68.2465 21.736 68.1185 23.144C68.0758 24.552 68.1398 25.832 68.3105 26.984C68.4812 27.9653 68.8012 28.904 69.2705 29.8C69.7398 30.6533 70.4652 31.1227 71.4465 31.208C72.1718 31.2933 72.8545 31.1653 73.4945 30.824C74.1772 30.4827 74.7745 30.0773 75.2865 29.608C75.8838 29.096 76.4598 28.4987 77.0145 27.816C77.6972 26.8347 78.2732 25.8747 78.7425 24.936C79.2118 23.9547 79.5318 23.272 79.7025 22.888C79.8732 22.7173 80.0225 22.6533 80.1505 22.696H80.2785C80.4918 22.7813 80.6198 22.9093 80.6625 23.08C80.7478 23.2507 80.7478 23.4427 80.6625 23.656C80.1932 24.68 79.7452 25.6187 79.3185 26.472C78.8918 27.2827 78.4865 28.008 78.1025 28.648C77.4198 29.7573 76.6092 30.696 75.6705 31.464C74.8598 32.104 73.8572 32.616 72.6625 33C71.5105 33.4267 70.1878 33.4053 68.6945 32.936C67.8838 32.68 67.0732 32.168 66.2625 31.4C65.4518 30.632 64.7692 29.672 64.2145 28.52C63.6598 27.368 63.2972 26.0667 63.1265 24.616C62.9558 23.1227 63.1052 21.5227 63.5745 19.816C64.0438 18.152 64.6412 16.872 65.3665 15.976C66.1345 15.0373 66.8812 14.3333 67.6065 13.864C68.4172 13.352 69.2705 13.0533 70.1665 12.968C71.2758 12.8827 72.1718 13.0107 72.8545 13.352C73.5798 13.6507 74.1772 14.0347 74.6465 14.504C75.0305 14.9307 75.3292 15.3787 75.5425 15.848C75.7558 16.2747 75.8625 16.7653 75.8625 17.32C75.9052 17.8747 75.7772 18.5147 75.4785 19.24C75.1798 19.8373 74.7532 20.136 74.1985 20.136ZM93.6545 27.368C93.6545 27.6667 93.6118 28.0293 93.5265 28.456C93.4412 28.84 93.3132 29.224 93.1425 29.608C93.0145 29.9493 92.8225 30.248 92.5665 30.504C92.3105 30.76 91.9905 30.9093 91.6065 30.952C90.7105 31.0373 90.0065 30.8667 89.4945 30.44C89.0252 29.9707 88.6625 29.4587 88.4065 28.904C88.1078 28.264 87.9372 27.5387 87.8945 26.728C87.7238 25.2773 87.6598 23.912 87.7025 22.632C87.7452 21.3093 87.7878 20.1573 87.8305 19.176C87.9585 18.2373 87.9798 17.5973 87.8945 17.256C87.8092 16.872 87.6598 16.6587 87.4465 16.616C87.1478 16.5733 86.8492 16.8933 86.5505 17.576C86.2518 18.2587 85.9532 19.0907 85.6545 20.072C85.3985 21.0533 85.1638 22.0773 84.9505 23.144C84.7798 24.2107 84.6732 25.128 84.6305 25.896C84.5452 27.2187 84.4812 28.4987 84.4385 29.736C84.4385 30.9307 84.4385 31.9547 84.4385 32.808C84.4385 33.3627 84.1612 33.64 83.6065 33.64C81.9425 33.512 80.7905 32.6587 80.1505 31.08C79.5105 29.5013 79.1692 27.432 79.1265 24.872C79.0412 23.4213 79.0198 22.0133 79.0625 20.648C79.0625 19.24 79.1052 18.1093 79.1905 17.256C79.3185 16.1467 79.7878 15.2293 80.5985 14.504C81.0678 14.12 81.6012 13.7573 82.1985 13.416C82.8385 13.032 83.6918 12.8187 84.7585 12.776C85.0998 12.776 85.2705 12.9467 85.2705 13.288C85.2278 13.7573 85.1638 14.8453 85.0785 16.552C85.5905 15.5707 86.2305 14.7173 86.9985 13.992C87.8092 13.224 88.8118 12.84 90.0065 12.84C91.4572 12.84 92.4598 13.2667 93.0145 14.12C93.6118 14.9307 93.9958 15.784 94.1665 16.68C94.6785 15.656 95.3185 14.76 96.0865 13.992C96.8972 13.224 97.8998 12.84 99.0945 12.84C100.375 12.84 101.313 13.1813 101.911 13.864C102.508 14.5467 102.913 15.2933 103.127 16.104C103.34 17.0853 103.404 18.1733 103.319 19.368C103.233 20.5627 103.148 21.7573 103.063 22.952C102.977 24.1467 102.913 25.256 102.871 26.28C102.871 27.2613 102.892 28.072 102.935 28.712C102.977 29.3093 103.063 29.6293 103.191 29.672C103.66 29.2027 104.108 28.6267 104.535 27.944C105.004 27.2613 105.431 26.6 105.815 25.96C106.199 25.2773 106.519 24.6587 106.775 24.104C107.031 23.5493 107.223 23.144 107.351 22.888C107.436 22.6747 107.585 22.6107 107.799 22.696H107.927C108.14 22.7813 108.268 22.9093 108.311 23.08C108.396 23.2507 108.396 23.4427 108.311 23.656C107.287 25.9173 106.327 27.7307 105.431 29.096C104.577 30.4187 103.767 31.4 102.999 32.04C102.273 32.68 101.569 33.0213 100.887 33.064C100.204 33.1067 99.5425 32.936 98.9025 32.552C98.1772 32.1253 97.6652 31.3573 97.3665 30.248C97.0678 29.096 96.8758 27.8587 96.7905 26.536C96.7052 25.1707 96.6838 23.8267 96.7265 22.504C96.8118 21.1387 96.8972 20.0293 96.9825 19.176C97.1105 18.2373 97.1318 17.5973 97.0465 17.256C96.9612 16.872 96.8118 16.6587 96.5985 16.616C96.2998 16.5733 95.9798 16.9147 95.6385 17.64C95.3398 18.3653 95.0412 19.24 94.7425 20.264C94.4865 21.2453 94.2518 22.2907 94.0385 23.4C93.8678 24.4667 93.7612 25.3627 93.7185 26.088V26.408C93.7185 26.4933 93.7185 26.6213 93.7185 26.792C93.7185 26.9627 93.6972 27.1547 93.6545 27.368ZM123.904 22.696C124.117 22.7813 124.245 22.9093 124.288 23.08C124.373 23.2507 124.373 23.4427 124.288 23.656C123.818 24.68 123.37 25.6187 122.944 26.472C122.517 27.2827 122.112 28.008 121.728 28.648C121.002 29.7573 120.17 30.696 119.232 31.464C118.421 32.104 117.44 32.616 116.288 33C115.136 33.4267 113.813 33.4053 112.32 32.936C111.509 32.68 110.677 32.168 109.824 31.4C109.013 30.632 108.33 29.672 107.776 28.52C107.221 27.368 106.858 26.0667 106.688 24.616C106.517 23.1227 106.688 21.5227 107.2 19.816C107.669 18.152 108.266 16.872 108.992 15.976C109.76 15.0373 110.506 14.3333 111.232 13.864C112.042 13.352 112.896 13.0533 113.792 12.968C114.858 12.8827 115.754 13.0107 116.48 13.352C117.205 13.6507 117.802 14.0347 118.272 14.504C118.656 14.9307 118.954 15.3787 119.168 15.848C119.381 16.2747 119.488 16.7653 119.488 17.32C119.53 17.8747 119.402 18.5147 119.104 19.24C118.762 20.008 118.272 20.648 117.632 21.16C117.077 21.6293 116.33 22.0133 115.392 22.312C114.453 22.568 113.258 22.5893 111.808 22.376C111.808 22.504 111.786 22.632 111.744 22.76C111.744 22.888 111.744 23.016 111.744 23.144C111.658 24.552 111.701 25.832 111.872 26.984C112.042 27.9653 112.362 28.904 112.832 29.8C113.301 30.6533 114.048 31.1227 115.072 31.208C115.797 31.2933 116.48 31.1653 117.12 30.824C117.802 30.4827 118.4 30.0773 118.912 29.608C119.509 29.096 120.085 28.4987 120.64 27.816C121.28 26.8347 121.834 25.8747 122.304 24.936C122.816 23.9547 123.157 23.272 123.328 22.888C123.413 22.6747 123.562 22.6107 123.776 22.696H123.904ZM117.76 15.592C117.461 15.2933 117.056 15.208 116.544 15.336C116.032 15.464 115.498 15.784 114.944 16.296C114.389 16.7653 113.856 17.4053 113.344 18.216C112.832 18.984 112.426 19.88 112.128 20.904C112.512 20.9893 112.938 21.032 113.408 21.032C113.877 21.032 114.346 20.968 114.816 20.84C115.328 20.712 115.797 20.5413 116.224 20.328C116.693 20.072 117.098 19.7093 117.44 19.24C117.824 18.6853 118.058 18.1947 118.144 17.768C118.272 17.2987 118.293 16.8933 118.208 16.552C118.122 16.168 117.973 15.848 117.76 15.592ZM149.824 20.136C149.312 20.136 148.864 20.008 148.48 19.752C148.224 19.5813 148.181 19.368 148.352 19.112C148.736 18.6 148.97 18.152 149.056 17.768C149.184 17.384 149.248 17.064 149.248 16.808C149.248 16.5093 149.184 16.232 149.056 15.976C148.629 15.72 148.138 15.6987 147.584 15.912C147.029 16.0827 146.474 16.4667 145.92 17.064C145.408 17.6613 144.938 18.472 144.512 19.496C144.128 20.52 143.872 21.736 143.744 23.144C143.701 24.552 143.765 25.832 143.936 26.984C144.106 27.9653 144.426 28.904 144.896 29.8C145.365 30.6533 146.09 31.1227 147.072 31.208C147.797 31.2933 148.48 31.1653 149.12 30.824C149.802 30.4827 150.4 30.0773 150.912 29.608C151.509 29.096 152.085 28.4987 152.64 27.816C153.322 26.8347 153.898 25.8747 154.368 24.936C154.837 23.9547 155.157 23.272 155.328 22.888C155.498 22.7173 155.648 22.6533 155.776 22.696H155.904C156.117 22.7813 156.245 22.9093 156.288 23.08C156.373 23.2507 156.373 23.4427 156.288 23.656C155.818 24.68 155.37 25.6187 154.944 26.472C154.517 27.2827 154.112 28.008 153.728 28.648C153.045 29.7573 152.234 30.696 151.296 31.464C150.485 32.104 149.482 32.616 148.288 33C147.136 33.4267 145.813 33.4053 144.32 32.936C143.509 32.68 142.698 32.168 141.888 31.4C141.077 30.632 140.394 29.672 139.84 28.52C139.285 27.368 138.922 26.0667 138.752 24.616C138.581 23.1227 138.73 21.5227 139.2 19.816C139.669 18.152 140.266 16.872 140.992 15.976C141.76 15.0373 142.506 14.3333 143.232 13.864C144.042 13.352 144.896 13.0533 145.792 12.968C146.901 12.8827 147.797 13.0107 148.48 13.352C149.205 13.6507 149.802 14.0347 150.272 14.504C150.656 14.9307 150.954 15.3787 151.168 15.848C151.381 16.2747 151.488 16.7653 151.488 17.32C151.53 17.8747 151.402 18.5147 151.104 19.24C150.805 19.8373 150.378 20.136 149.824 20.136Z" fill="#FFC700"/>
</svg>
